<?xml version="1.0" encoding="UTF-8"?>
<svg id="Layer_2" data-name="Layer 2" xmlns="http://www.w3.org/2000/svg" xmlns:xlink="http://www.w3.org/1999/xlink" viewBox="0 0 833.48 655.53">
  <defs>
    <style>
      .cls-1 {
        fill: url(#linear-gradient-4);
      }

      .cls-2 {
        fill: url(#linear-gradient-2);
      }

      .cls-2, .cls-3 {
        stroke-width: 13px;
      }

      .cls-2, .cls-3, .cls-4 {
        stroke: #a5926d;
        stroke-miterlimit: 10;
      }

      .cls-3 {
        fill: url(#linear-gradient-3);
      }

      .cls-4 {
        fill: url(#linear-gradient);
        stroke-width: 10px;
      }
    </style>
    <linearGradient id="linear-gradient" x1="543.83" y1="327.24" x2="622.62" y2="327.24" gradientTransform="translate(60.3) skewX(-10.47)" gradientUnits="userSpaceOnUse">
      <stop offset="0" stop-color="#fdd978"/>
      <stop offset="1" stop-color="#dea931"/>
    </linearGradient>
    <linearGradient id="linear-gradient-2" x1="294.14" y1="350.71" x2="528.64" y2="350.71" xlink:href="#linear-gradient"/>
    <linearGradient id="linear-gradient-3" x1="8.15" y1="322.7" x2="275" y2="322.7" xlink:href="#linear-gradient"/>
    <linearGradient id="linear-gradient-4" x1="13.21" y1="327.76" x2="833.48" y2="327.76" gradientTransform="matrix(1,0,0,1,0,0)" xlink:href="#linear-gradient"/>
  </defs>
  <g id="Layer_1-2" data-name="Layer 1">
    <g>
      <path class="cls-4" d="M609.03,383.51h-72.76l33.56-197.94h78.8l-39.6,197.94ZM596.51,455.34c-.7,3.77-2.67,6.97-5.92,9.61-3.26,2.64-6.89,3.96-10.91,3.96h-45.62c-3.77,0-6.86-1.32-9.26-3.96-2.4-2.64-3.26-5.84-2.56-9.61l7.25-39.21c.7-3.77,2.74-7.03,6.15-9.8,3.4-2.76,6.99-4.15,10.76-4.15h45.62c4.02,0,7.15,1.38,9.41,4.15,2.25,2.77,3.03,6.03,2.33,9.8l-7.25,39.21Z"/>
      <path class="cls-2" d="M427.57,238.73c16.08,0,30.75,2.96,43.98,8.86,13.23,5.91,24.2,13.89,32.9,23.94,8.7,10.06,14.86,21.93,18.49,35.63,3.62,13.7,4.02,28.22,1.19,43.55s-8.65,30.16-17.32,43.73c-8.67,13.57-19.22,25.45-31.66,35.63s-26.35,18.16-41.75,23.94c-15.4,5.78-31.14,8.67-47.22,8.67s-31.08-2.89-44.21-8.67c-13.14-5.78-24.04-13.76-32.71-23.94s-14.84-22.06-18.49-35.63c-3.65-13.57-4.03-28.15-1.15-43.73s8.59-29.84,17.28-43.55c8.69-13.7,19.24-25.57,31.66-35.63,12.41-10.05,26.27-18.03,41.56-23.94,15.29-5.9,31.1-8.86,47.44-8.86ZM451.85,350.14c1.06-5.75.94-11.19-.38-16.32-1.31-5.13-3.64-9.57-6.96-13.33-3.33-3.75-7.49-6.76-12.47-9.01-4.99-2.25-10.5-3.38-16.53-3.38s-11.96,1.13-17.78,3.38c-5.82,2.25-11.03,5.25-15.61,9.01-4.59,3.75-8.55,8.19-11.89,13.33-3.34,5.13-5.54,10.57-6.6,16.32-1.06,5.76-.88,11.2.56,16.33,1.44,5.13,3.76,9.57,6.96,13.33,3.2,3.75,7.29,6.76,12.29,9.01,4.99,2.25,10.5,3.38,16.53,3.38s11.95-1.12,17.78-3.38c5.82-2.25,11.09-5.25,15.8-9.01,4.71-3.75,8.68-8.19,11.89-13.33,3.21-5.13,5.35-10.57,6.41-16.33Z"/>
      <path class="cls-3" d="M275.89,296.98c.05-.64-.45-1.19-1.09-1.19l-23.89-.23-70.29-.27c-.46,0-.87.28-1.03.7l-25.26,63.76c-.29.73.25,1.52,1.03,1.52h30.79c.98,0,1.48,1.19.79,1.89h0c-6.99,6.54-14.51,11.5-22.55,14.89-8.04,3.39-16.08,5.41-24.11,6.03-8.03.63-15.65-.31-22.85-2.83-7.21-2.51-13.41-6.66-18.63-12.44-5.52-5.53-9.18-11.88-11-19.04-1.82-7.16-2.14-14.64-.94-22.43,1.19-7.79,3.69-15.58,7.52-23.38,3.83-7.79,8.75-15.08,14.79-21.87,4.49-5.28,10.68-9.86,18.57-13.76,7.88-3.89,16.37-6.66,25.47-8.29,9.1-1.63,18.42-1.75,27.97-.38,9.26,1.34,17.8,4.64,25.63,9.88.43.29.99.25,1.37-.1l60.84-56.63c.48-.45.47-1.22-.02-1.65-12.11-10.63-26.9-18.15-44.34-22.56-17.89-4.52-36.61-5.9-56.16-4.15-19.55,1.76-38.79,6.54-57.69,14.33-18.91,7.79-35.65,18.47-50.22,32.05-15.22,14.33-27.33,30.23-36.34,47.69-9.01,17.47-14.59,35.06-16.73,52.78-2.14,17.72-.87,34.94,3.84,51.65,4.7,16.72,13.06,31.36,25.06,43.92,8.38,9.05,17.92,16.28,28.61,21.68,10.69,5.41,22.07,9.11,34.14,11.12,6.67,1.11,13.53,1.69,20.29,1.9,35.37,1.09,71.31-4.58,99.8-27.23,2.3-1.83,4.55-3.74,6.73-5.73,1.44-1.32,2.87-2.67,4.28-4.06,25.43-25.11,40.49-58.88,43.16-94.52l2.48-33.05Z"/>
      <path class="cls-1" d="M13.24,102.46l17.5-.05c161.36-.47,326.08-.49,485.84-.49,1.3-12.58,2.79-25.13,4.25-37.39,1.83-15.37,3.71-31.25,5.17-46.78.05-.62.11-1.32.2-2.12.09-.83.24-1.64.44-2.43t0,0s0-.02,0-.03c0,0,0,0,0,0,0,0,0-.02,0-.03,0,0,0-.01,0-.02,0,0,0-.01,0-.02,0,0,0-.02,0-.02,0,0,0,0,0,0,.64-2.46,1.81-4.72,3.39-6.65,0,0,0,0,0,0,0,0,.01-.01.02-.02,0,0,0,0,.01-.01,0,0,0,0,.01-.01,0,0,0-.01.01-.02,0,0,0,0,0,0,0,0,.01-.02.02-.02h0s.01-.02.02-.03c0,0,0,0,0,0,.91-1.09,1.96-2.08,3.13-2.93h0s.02-.01.03-.02c0,0,0,0,0,0,0,0,.02-.01.02-.02,0,0,0,0,0,0,0,0,.01,0,.02-.01h.01s0-.02.01-.02c0,0,.01,0,.02-.02,0,0,0,0,0,0,1.5-1.07,3.19-1.91,5.01-2.48,1.25-.39,2.52-.62,3.79-.72.01,0,.02,0,.04,0,2.06-.16,4.12.06,6.07.61,0,0,0,0,0,0,0,0,.01,0,.02,0,0,0,0,0,.02,0,0,0,0,0,0,0,1.8.51,3.51,1.31,5.07,2.38,0,0,0,0,0,0,0,0,0,0,.01,0,1.27.87,2.44,1.92,3.47,3.13.34.4.66.81.95,1.22,2.1,2.8,5.58,6.27,8.94,9.64.28.28.56.58.82.88,49.42,56.74,102.61,117.43,161.59,180.55.15.16.3.32.44.49,3.68,4.25,7.21,8.42,10.62,12.46,8.71,10.3,16.93,20.04,26.53,29.63.19.19.37.38.55.57,19.15,20.97,40.85,44.74,60.8,69.94.3.37.58.76.84,1.16,5.65,8.47,6.6,22.1-1.19,31.01-10.21,13-20.42,24.47-30.3,35.58-7.75,8.7-15.76,17.7-23.53,27.2-.37.45-.76.88-1.17,1.29-1.68,1.69-3.42,3.07-4.94,4.29-.54.43-1.28,1.03-1.75,1.43-28.03,32.79-55.01,62.62-83.55,94.18-12.69,14.03-25.82,28.54-38.96,43.25-13.25,15.52-26.8,30.54-39.91,45.07-16.06,17.8-31.25,34.63-46.07,52.47-.31.4-.65.79-1,1.19,0,0,0,0,0,0,0,0,0,0,0,0,0,0-.01.01-.02.02,0,0-.01.01-.02.02h0c-.91,1.01-1.91,1.9-3,2.66h0s-.01,0-.02.01c0,0,0,0,0,0,0,0,0,0-.01.01,0,0,0,0,0,0,0,0,0,0-.01,0,0,0,0,0-.01.01,0,0,0,0,0,0,0,0-.01,0-.02.01h0c-2.06,1.42-4.38,2.37-6.81,2.81h0s-.02,0-.03,0c0,0-.02,0-.03,0-.01,0-.02,0-.03,0,0,0-.02,0-.03,0,0,0-.02,0-.03,0,0,0,0,0-.01,0,0,0,0,0-.02,0-.97.17-1.95.25-2.94.25-.39,0-.79-.01-1.18-.04-.01,0-.03,0-.04,0-.01,0-.03,0-.04,0-.01,0-.02,0-.04,0-.01,0-.02,0-.04,0s-.03,0-.04,0c-.01,0-.03,0-.04,0-.01,0-.02,0-.04,0-.01,0-.02,0-.04,0h0c-1.25-.11-2.49-.35-3.72-.73-.13-.04-.27-.08-.4-.13h0s-.02,0-.04-.01c0,0,0,0,0,0,0,0-.02,0-.03-.01,0,0,0,0-.01,0,0,0-.02,0-.02,0,0,0-.01,0-.02,0,0,0-.01,0-.02,0,0,0-.01,0-.02,0,0,0-.01,0-.02,0,0,0-.02,0-.02,0,0,0,0,0-.01,0,0,0-.02,0-.03-.01,0,0,0,0,0,0h-.03s0-.01,0-.01c-6.23-2.23-10.69-7.8-11.48-14.4-2.24-18.27-4.18-36.9-6.06-54.92-1.08-10.35-2.18-20.94-3.35-31.52-97.1-1.53-195.85-1.14-291.51-.75-63.84.25-129.86.52-194.6.21l-17.5-.08,43.44-35,2.41.08c64.58.31,102.35.05,166.11-.21,100.89-.4,205.21-.82,307.62,1.02,8.75.16,16.04,6.76,17.07,15.45,1.86,15.78,3.52,31.74,5.12,47.18.51,4.86,1.02,9.76,1.54,14.69,7.11-8.01,14.23-15.91,21.25-23.68,12.99-14.4,26.42-29.28,39.4-44.49.09-.1.18-.2.27-.3,13.25-14.83,26.46-29.43,39.23-43.55,28.58-31.6,55.58-61.45,83.52-94.16.3-.35.61-.68.93-1.01,1.69-1.69,3.42-3.07,4.94-4.29.5-.4,1.18-.95,1.65-1.34,7.98-9.71,15.97-18.69,23.71-27.38,8.48-9.53,16.57-18.62,24.67-28.6-17.71-21.88-36.26-42.21-54.26-61.92-10.5-10.53-19.11-20.71-28.22-31.5-3.28-3.88-6.66-7.88-10.13-11.88-53.15-56.89-101.54-111.7-146.7-163.45-.39,3.34-.79,6.67-1.18,9.97-2.04,17.18-4.15,34.95-5.68,52.3-.8,9.03-8.36,15.96-17.43,15.96-164.68,0-309.17,0-475.83.49M802.1,320.05s-.01.01-.02.02c0,0,.01-.01.02-.02Z"/>
    </g>
  </g>
</svg>