<?xml version="1.0" encoding="UTF-8"?><svg id="Layer_2" xmlns="http://www.w3.org/2000/svg" viewBox="0 0 1194.94 1697.04"><defs><style>.cls-1{fill:#9d1b2a;}.cls-2{fill:#bd2638;}.cls-3{fill:#e23044;}.cls-4{fill:#b92536;}</style></defs><g id="Capa_1"><path class="cls-4" d="M1019.94,175C911.81,66.87,762.5,0,597.47,0S283.13,66.87,175,175C66.87,283.13,0,432.44,0,597.39c0,4.47.08,9.02.32,13.73,7.34,166.22,144.92,432.52,286.25,659.87,145.32,233.65,294.62,426.05,310.9,426.05,12.05,0,109.41-122.17,222.09-290.07,2.79-4.31,5.74-8.62,8.7-12.93,35.03-52.58,71.42-109.4,107.01-168.05,133.83-220.66,256.88-468.52,259.59-623.41.08-1.76.08-3.51.08-5.19,0-164.94-66.87-314.26-175-422.38M597.47,215.06c181.23,0,328.14,146.91,328.14,328.14s-146.91,328.22-328.14,328.22-328.14-146.91-328.14-328.22,146.91-328.14,328.14-328.14"/><path class="cls-3" d="M1194.86,602.58c-1.28-156.41-65.2-297.9-167.9-400.6-103.82-103.82-247.22-167.98-405.55-167.98S319.69,98.15,215.86,201.97c-103.74,103.74-167.98,247.14-167.98,405.47,0,22.1,2.63,46.28,7.58,72.22,30.4,159.2,147.47,381.45,267.49,574.4,139.49,224.33,282.82,408.98,298.46,408.98,11.02,0,96.4-106.53,198.15-256.08,2.79-4.31,5.74-8.62,8.7-12.93,35.03-51.95,71.81-108.76,108.05-167.9,133.51-217.93,258.63-466.84,258.63-618.7,0-1.59,0-3.27-.08-4.87M597.47,215.06c181.23,0,328.14,146.91,328.14,328.14s-146.91,328.22-328.14,328.22-328.14-146.91-328.14-328.22,146.91-328.14,328.14-328.14"/><path class="cls-1" d="M.32,611.12c7.34,166.22,144.92,432.52,286.25,659.87,145.32,233.65,294.62,426.05,310.9,426.05,12.05,0,109.41-122.17,222.09-290.07-101.74,149.55-187.13,256.08-198.15,256.08-15.64,0-158.96-184.66-298.46-408.98-120.02-192.96-237.09-415.2-267.49-574.4h0c-19.23-22.82-37.59-45.73-55.14-68.55"/><path class="cls-2" d="M55.47,679.67h0c30.4,159.2,147.47,381.45,267.49,574.4,139.49,224.33,282.82,408.98,298.46,408.98,11.02,0,96.4-106.53,198.15-256.08h0c2.79-4.31,5.74-8.62,8.7-12.93,35.03-51.95,71.81-108.76,108.05-167.9l-1.04-.16c-387.28-69.75-676.71-303.81-879.8-546.32h0"/></g></svg>