<?xml version="1.0" encoding="UTF-8"?>
<svg id="Layer_2" data-name="Layer 2" xmlns="http://www.w3.org/2000/svg" xmlns:xlink="http://www.w3.org/1999/xlink" viewBox="0 0 921.81 506.99">
  <defs>
    <style>
      .cls-1 {
        fill: url(#linear-gradient-2);
      }

      .cls-2 {
        fill: none;
      }

      .cls-3 {
        fill: url(#linear-gradient-4);
      }

      .cls-4 {
        fill: #b2b2b2;
      }

      .cls-5 {
        fill: url(#linear-gradient-3);
      }

      .cls-6 {
        fill: url(#linear-gradient-5);
      }

      .cls-7 {
        fill: url(#linear-gradient-7);
      }

      .cls-8 {
        fill: url(#linear-gradient-6);
      }

      .cls-9 {
        fill: url(#linear-gradient);
      }
    </style>
    <linearGradient id="linear-gradient" x1="815.48" y1="308.29" x2="815.48" y2="249.3" gradientTransform="translate(85.56) skewX(-17.06)" gradientUnits="userSpaceOnUse">
      <stop offset="0" stop-color="#e3e5e4"/>
      <stop offset="1" stop-color="#f9fbfa"/>
    </linearGradient>
    <linearGradient id="linear-gradient-2" x1="569.99" y1="59.71" x2="689.4" y2="59.71" gradientUnits="userSpaceOnUse">
      <stop offset="0" stop-color="#fdd978"/>
      <stop offset="1" stop-color="#dea931"/>
    </linearGradient>
    <linearGradient id="linear-gradient-3" x1="768.5" y1="460.01" x2="862.46" y2="460.01" xlink:href="#linear-gradient-2"/>
    <linearGradient id="linear-gradient-4" x1="0" y1="406.06" x2="174.07" y2="406.06" xlink:href="#linear-gradient-2"/>
    <linearGradient id="linear-gradient-5" x1="239.36" y1="395.14" x2="340.38" y2="65.94" gradientUnits="userSpaceOnUse">
      <stop offset="0" stop-color="#e3e5e4"/>
      <stop offset=".19" stop-color="#ebedec"/>
      <stop offset=".55" stop-color="#f5f7f6"/>
      <stop offset="1" stop-color="#f9fbfa"/>
    </linearGradient>
    <linearGradient id="linear-gradient-6" x1="366.02" y1="431.51" x2="453.01" y2="148.04" gradientTransform="matrix(1,0,0,1,0,0)" xlink:href="#linear-gradient"/>
    <linearGradient id="linear-gradient-7" x1="450.42" y1="279.76" x2="760.33" y2="279.76" gradientTransform="matrix(1,0,0,1,0,0)" xlink:href="#linear-gradient"/>
  </defs>
  <g id="Layer_1-2" data-name="Layer 1">
    <g>
      <g>
        <path class="cls-9" d="M894.91,308.29h-176.97l18.1-58.99h176.97l-18.1,58.99Z"/>
        <path class="cls-4" d="M899.72,314.79h-190.57l22.09-71.99h190.57l-22.09,71.99ZM726.74,301.79h163.37l14.11-45.99h-163.37l-14.11,45.99Z"/>
      </g>
      <path class="cls-1" d="M689.4,59.71v.24c-.24.02-.49,0-.72.05-4.83.99-9.67,1.94-14.48,3.01-6.07,1.35-12,3.17-17.65,5.81-5.95,2.78-10.88,6.73-14.56,12.19-2.82,4.2-4.81,8.78-6.31,13.59-2.1,6.75-3.67,13.63-5.02,20.56-.27,1.41-.49,2.83-.73,4.25h-.24c-.02-.16-.02-.32-.05-.48-.97-4.67-1.89-9.35-2.93-14-1.16-5.21-2.56-10.37-4.59-15.32-2.03-4.94-4.67-9.5-8.39-13.38-3.69-3.84-8.19-6.41-13.03-8.47-5.52-2.34-11.29-3.85-17.12-5.14-4.52-.99-9.06-1.86-13.59-2.79,0-.04,0-.08,0-.12.04,0,.08.01.12,0,6.73-1.22,13.45-2.51,20.04-4.38,5-1.42,9.96-2.98,14.58-5.42,5.62-2.96,10.17-7.07,13.57-12.45,2.87-4.54,4.7-9.52,6.28-14.61,1.91-6.13,3.2-12.42,4.39-18.72.26-1.37.48-2.75.72-4.13.08,0,.16,0,.24,0,0,.16,0,.33.02.48,1.09,5.22,2.08,10.47,3.29,15.66,1.36,5.85,3.08,11.6,5.67,17.06,2.77,5.83,6.67,10.68,12.03,14.32,3.95,2.67,8.24,4.64,12.76,6.09,8.4,2.7,17.01,4.53,25.68,6.09Z"/>
      <path class="cls-5" d="M862.46,460.01v.19c-.19.01-.38,0-.57.04-3.8.78-7.61,1.52-11.39,2.36-4.78,1.06-9.44,2.49-13.89,4.57-4.68,2.18-8.56,5.29-11.46,9.6-2.22,3.3-3.79,6.91-4.97,10.69-1.66,5.31-2.89,10.73-3.95,16.18-.22,1.11-.38,2.23-.57,3.34h-.19c-.01-.13-.01-.26-.04-.38-.76-3.67-1.49-7.36-2.3-11.02-.91-4.1-2.01-8.16-3.61-12.06-1.6-3.89-3.67-7.48-6.6-10.53-2.9-3.02-6.45-5.05-10.25-6.66-4.34-1.84-8.88-3.03-13.47-4.04-3.55-.78-7.13-1.47-10.7-2.19,0-.03,0-.06,0-.1.03,0,.06,0,.1,0,5.3-.96,10.58-1.97,15.77-3.45,3.94-1.12,7.83-2.35,11.47-4.26,4.42-2.33,8-5.56,10.68-9.79,2.26-3.57,3.7-7.49,4.94-11.5,1.5-4.83,2.52-9.77,3.46-14.73.2-1.08.38-2.17.57-3.25.06,0,.13,0,.19,0,0,.13,0,.26.02.38.85,4.11,1.64,8.24,2.59,12.33,1.07,4.61,2.42,9.13,4.46,13.43,2.18,4.59,5.25,8.4,9.47,11.26,3.11,2.1,6.48,3.65,10.04,4.79,6.61,2.13,13.38,3.57,20.21,4.79Z"/>
      <path class="cls-3" d="M174.07,406.06v.36c-.35.02-.71,0-1.05.07-7.04,1.45-14.09,2.82-21.1,4.38-8.85,1.96-17.48,4.62-25.73,8.47-8.67,4.05-15.86,9.8-21.22,17.78-4.12,6.12-7.02,12.8-9.2,19.81-3.07,9.84-5.35,19.87-7.32,29.98-.4,2.06-.71,4.13-1.06,6.2h-.36c-.02-.23-.03-.47-.07-.7-1.41-6.81-2.76-13.63-4.27-20.41-1.69-7.6-3.73-15.11-6.69-22.33-2.96-7.21-6.8-13.86-12.24-19.51-5.38-5.59-11.94-9.35-19-12.34-8.04-3.41-16.45-5.62-24.95-7.49-6.58-1.45-13.21-2.72-19.82-4.06,0-.06,0-.12,0-.18.06,0,.12.02.18,0,9.81-1.78,19.6-3.66,29.21-6.39,7.29-2.07,14.51-4.35,21.26-7.9,8.19-4.31,14.83-10.3,19.78-18.14,4.18-6.62,6.85-13.88,9.16-21.3,2.78-8.94,4.67-18.1,6.4-27.29.38-2,.7-4.01,1.05-6.02.12,0,.24,0,.36,0,0,.23-.01.47.03.7,1.58,7.61,3.04,15.26,4.8,22.83,1.98,8.53,4.49,16.91,8.27,24.87,4.04,8.5,9.72,15.57,17.54,20.87,5.75,3.9,12.01,6.76,18.6,8.88,12.24,3.94,24.79,6.61,37.44,8.88Z"/>
      <polygon class="cls-6" points="178.36 138.93 244.07 138.93 271.5 272.13 412.45 106.35 472.07 106.35 238.25 394.81 224.65 377.21 174.04 138.42 178.36 138.93"/>
      <path class="cls-4" d="M485.57,101.32h-78.17l-130.15,157.47-26.58-126.37h-81.05l56.93,270.85h22.22l207.16-264.35M240.16,146.5l30.1,143.12,143.41-179.39h50.41l-225.83,284.59-52.19-248.31h54.1Z"/>
      <polygon class="cls-8" points="449.61 146.99 508.14 394.81 442.23 394.81 435.38 368.13 331 366.23 307 400.13 246.42 394.81 449.61 146.99"/>
      <g>
        <path class="cls-4" d="M415.91,258.08l-47.62,56.71h60.42l-12.8-56.71ZM396.19,301.79l12.81-15.27,3.45,15.27h-16.26ZM415.91,258.08l-47.62,56.71h60.42l-12.8-56.71ZM396.19,301.79l12.81-15.27,3.45,15.27h-16.26ZM454.47,132.42l-18.75,22.36-208.42,248.49h83.78l24.68-29.49h92.92l6.58,29.49h80.14l-60.93-270.85ZM439.1,360.78h-109.41l-24.68,29.49h-49.84l192.38-229.37,51.6,229.37h-53.47l-6.58-29.49ZM368.29,314.79h60.42l-12.8-56.71-47.62,56.71Z"/>
        <path class="cls-2" d="M447.55,160.9l-192.38,229.37h49.84l24.68-29.49h109.41l6.58,29.49h53.47l-51.6-229.37ZM368.29,314.79l47.62-56.71,12.8,56.71h-60.42Z"/>
      </g>
      <polygon class="cls-7" points="484.37 294.16 523.76 160.9 564.9 160.9 659.38 294.16 701.28 160.9 760.33 160.9 689.4 396.32 647.57 396.32 553.85 265.28 508.14 398.61 450.42 398.61 484.37 294.16"/>
      <path class="cls-4" d="M693.53,403.27h-49.94l-88.04-127.02-38.98,127.02h-72.59l76.4-248.96h49.94l88.04,127.02,38.98-127.02h72.59l-76.4,248.96ZM650.39,390.27h33.53l68.42-222.96h-45.39l-44.02,143.44-99.42-143.44h-33.53l-68.42,222.96h45.39l44.02-143.44,99.42,143.44Z"/>
    </g>
  </g>
</svg>